# xmcd
#
# Track frame offsets:
#	150
#	20237
#	35362
#	48835
#	63517
#	74107
#	88920
#	100675
#	115925
#	127665
#	147947
#	157872
#	170940
#	189647
#	199657
#	218755
#
# Disc length: 3081 seconds
#
# Revision: 1
# Processed by: cddbd v1.5.1PL0 Copyright (c) Steve Scherf et al.
# Submitted via: audiograbber 1.82.02
#
DISCID=e90c0710
DTITLE=Various Artist - The Tamworth Tapes Volume Two
DYEAR=1900
DGENRE=Country
TTITLE0=Col Joye - All Fades Away
TTITLE1=Eric Bogle - Shelter
TTITLE2=Rex Dallas - His Spurs Are Rusty Now
TTITLE3=Donna Frisk - Bring Me No More Roses
TTITLE4=Buddy Williams - Survival
TTITLE5=Natalie Wood - Who Were You Thinking Of
TTITLE6=Col Millington - Birdsville Pub
TTITLE7=John McSweeney - Roses In The Winer
TTITLE8=1901 - The Dog Sits On The Tucker Box
TTITLE9=Gabrielle Murphy - Australia Is My Home
TTITLE10=Chris Duffy - Down Yonder
TTITLE11=Hotspur - One More Chance
TTITLE12=Bandy Bill and Co - Modern Day Swaggies
TTITLE13=Ric Pilch - Laying In The Arms Of Mary
TTITLE14=Ted Egan - Such Is Lite
TTITLE15=Jane Maddick - You've Got The Fiddle
EXTD=
EXTT0=
EXTT1=
EXTT2=
EXTT3=
EXTT4=
EXTT5=
EXTT6=
EXTT7=
EXTT8=
EXTT9=
EXTT10=
EXTT11=
EXTT12=
EXTT13=
EXTT14=
EXTT15=
PLAYORDER=
